<svg version="1.1" id="Camada_1" xmlns="http://www.w3.org/2000/svg" xmlns:xlink="http://www.w3.org/1999/xlink" x="0px" y="0px"
	 viewBox="0 0 304 741" style="enable-background:new 0 0 304 741;" xml:space="preserve">
<style type="text/css">
	.st0{fill:#D2DFE7;}
	.st1{fill:#000;}
</style>
<g>
	<path class="st0" d="M72.1,167.1c-0.1-3.4-0.2-6.8-0.3-10.2c0.8-2.5,3-2.3,4.9-2.4c3.1-0.2,6.3-0.1,9.5-0.1c45,0,90,0,135,0
		c2.9,0,6-0.6,8.6,1.5c0,3.7,0,7.5,0,11.2c-1.9,1.7-4.3,1.5-6.6,1.5c-48.2,0-96.3,0-144.5,0C76.5,168.6,74.1,168.8,72.1,167.1z"/>
	<path class="st1" d="M229.9,155.9c-50.8,0-101.6,0.1-152.4,0.1c-1.9,0-4-0.9-5.7,0.8c-0.8-0.1-1.6,0.1-1.6-1.1
		c0.2-0.9,0.6-1.8,0.7-2.8c1.3-7,1.3-7,8.3-7c48.4,0,96.9,0,145.3,0c6.6,0,6.6,0,6.2,6.8C229.5,153.6,230.2,154.9,229.9,155.9z"/>
	<path class="st1" d="M72.1,167.1c52.6,0,105.2,0,157.7,0c0.3,3.2,1.9,6.3,0.8,9.7c-2,0.1-4,0.2-6,0.2c-48.6,0-97.2,0-145.7,0
		c-2.2,0-4.3,0.1-6.5,0.2C71.6,173.9,72.2,170.5,72.1,167.1z"/>
	<path class="st1" d="M172.4,554.7c15.9-1.4,31.8-1.1,47.7-2.7c7.8-0.8,15.8,0.2,23.6-1.2c0,3.6,0.1,7.3,0.1,10.9
		c-1.7,1.7-3.9,1.6-6.1,1.7c-19.9,0.2-39.8,1.7-59.7,2.7c-1.9,0.1-3.7,0.1-5.1-1.4C172.9,561.3,173.3,558,172.4,554.7z"/>
	<path class="st1" d="M66.2,550.8c15.5,0.7,31.1,0.9,46.6,2.2c8.4,0.7,16.9,0.5,25.2,1.9c-0.5,3,1.2,6.2-0.9,9.1
		c-3.9,2.3-8.1,1.4-12.2,1.1c-14.9-1.1-29.9-2-44.8-2.8c-5.1-0.3-10.3,0.2-15-2.7C65.5,556.7,65.8,553.8,66.2,550.8z"/>
	<path class="st0" d="M173,564.6c9-1.5,18.2,0.1,27.2-1.7c0.8-0.2,1.7-0.1,2.5-0.1c13.7-0.4,27.5-0.7,41.2-1.1c2,2.9,3,5.9,1.1,9.3
		c-1.2,1-2.7,1.3-4.2,1.3c-15.7,0.2-31.4,1.6-47.1,2.1c-4,0.1-7.9,0.1-11.9,0.7c-2.7,0.4-5.3,0.4-7.7-1.2
		C171.9,571,173.5,567.7,173,564.6z"/>
	<path class="st1" d="M135,582c-10.2-0.4-20.4-0.6-30.6-1.3c-12.6-0.9-25.2-1.9-37.9-2c-0.8,0-1.6-0.5-2.3-0.8
		c0.1-3.4-1.1-6.8,0.7-10.1c4-1.1,7.9,0.3,11.8,0.5c14.7,0.6,29.4,1.4,44.1,2.7c3,0.3,6,0.2,8.9,0.3c2.1,0.1,4.4-0.2,6.1,1.6
		C135.6,575.9,137,579.2,135,582z"/>
	<path class="st0" d="M135.9,572.9c-15.7,0.3-31.3-1.5-46.9-2.4c-8-0.5-16.4,1-24.1-2.6c0-2.8,0.1-5.5,0.1-8.3c24,1.5,48,2.9,72,4.4
		C136.8,567,137.7,570.1,135.9,572.9z"/>
	<path class="st1" d="M233.2,158.3c16.9-1.7,33.6-4.3,50.5-5.3c1.6,3.5,1.7,7.2,2.1,10.9c-2.9,3.2-7,2.9-10.7,3.3
		c-10.8,1-21.4,2.8-32.2,3.9c-2.8,0.3-5.7,1-8-1.3C234.4,166,233.8,162.1,233.2,158.3z"/>
	<path class="st1" d="M174.1,573.9c16.2-0.8,32.4-1.6,48.5-2.3c7.4-0.3,14.9-0.6,22.3-0.5c-0.1,2.5-0.2,5-0.2,7.6
		c-10.2,0.4-20.4,1-30.6,1.5c-11.6,0.5-23.2,1.8-34.9,1.8c-1.3,0-2.6-0.1-4-0.2C174.5,579.1,175.7,576.3,174.1,573.9z"/>
	<path class="st0" d="M235,169.8c10.7,0.5,21-2.1,31.5-3.2c6.5-0.7,13-1,19.4-2.7c1.8,3.2,0.7,6.9,2,10.2
		c-5.6,2.4-11.7,2.1-17.5,2.8c-9.7,1-19.3,3.4-29.1,3.1C238.7,176.9,234.7,174.7,235,169.8z"/>
	<path class="st1" d="M241.2,180c4.2-2.2,9.1-2.3,13.6-2.6c11-1,21.9-3.6,33-3.2c-0.1,3.1,1.1,6,1.9,8.9
		c-11.8,0.6-23.5,2.3-35.2,3.7c-3.4,0.4-6.9,0.4-10.4,0.5C243.9,184.5,244.3,181.5,241.2,180z"/>
	<path class="st1" d="M229.1,37.1c-4,5.7-8.1,11.4-12.1,17.1c-4.1,6-4,6-10.5,1.9c0.4-4.6,4-7.4,6.1-11.1c1.8-3.2,4.2-5.9,6.1-9
		c1.3-2.1,3-3,5.4-2.2C226.1,34.4,227.4,35.9,229.1,37.1z"/>
	<path class="st0" d="M224,33.9c-5.3,0.1-5.4,5.4-7.9,8.2c-3.7,4.2-6.5,9.3-9.6,14c-2.3-1.1-4.5-2.2-6.8-3.3c-0.3-2,0.9-3.5,2-4.9
		c4.5-5.8,7.2-12.9,13-17.8C217.8,31.4,220.9,32.6,224,33.9z"/>
	<path class="st1" d="M214.7,30.1c-5,7.6-10,15.1-15,22.7c-6.8-3.1-6.7-3-3-9.3c3.3-5.5,7.3-10.3,11.2-15.3
		C210.4,28.1,212.4,29.7,214.7,30.1z"/>
	<path class="st1" d="M18.3,154.1c12.4,1.6,24.9,3.2,37.3,4.9c4.1,0.5,8.2,1.2,12.2,1.8c1.2,3.7-0.3,6.5-2.9,8.9
		c-1.9,2-4.2,1.6-6.5,1.3c-12.2-1.5-24.3-3.3-36.5-4.8c-2.1-0.3-4.3-0.5-5.9-2.3C16.4,160.6,17.3,157.3,18.3,154.1z"/>
	<path class="st0" d="M16.2,164c11.6,1.7,23.1,3.7,34.7,4.8c4.7,0.5,9.3,2,14.1,1.1c0.2,4.6-2.1,8.3-4.3,12.1
		c-12.4-2.8-25.1-3.4-37.6-5.6c-3.1-0.5-6.3-0.4-9-2.3C16.2,171,13.7,167,16.2,164z"/>
	<path class="st1" d="M14.2,174.1c5.7-0.6,11,1.3,16.5,2c9.4,1.1,18.7,2.6,28.1,3.9c1.2,0.2,2.4,0.3,2,2c-1.5,2.5-6,2.9-4.9,7.1
		c-12.2-0.7-24.2-3.1-36.3-4.6c-2.5-0.3-4.9-0.3-7.4-0.7C11.8,180.4,14.6,177.6,14.2,174.1z"/>
	<path class="st1" d="M96.1,55.2c-8.4,5.1-8.4,5.1-15.1-1.7c-4.7-4.8-9.6-9.4-15-13.5c2.7-1.7,5.4-3.4,8-5c1-0.6,2-0.5,2.8,0.2
		C83.5,41.5,90.8,47.4,96.1,55.2z"/>
	<path class="st0" d="M96.1,55.2c-5.9-5.8-11.9-11.5-17.8-17.3c-1.3-1.2-2.2-2.8-4.3-3c1.8-3.1,5.4-2.4,8.1-3.8
		c7.9,6,14.7,13,21,20.7C100.8,53.1,98.7,54.7,96.1,55.2z"/>
	<path class="st1" d="M103.1,51.9c-7.6-6.3-14.4-13.4-20.9-20.7c2.3-0.3,4.1-2.7,6.8-1.9c5,4.9,9.6,10.3,15.3,14.6
		C110.1,48.3,109.9,48.9,103.1,51.9z"/>
</g>
</svg>
