<?xml version="1.0" encoding="utf-8"?>
<!-- Generator: Adobe Illustrator 26.0.0, SVG Export Plug-In . SVG Version: 6.00 Build 0)  -->
<svg version="1.1" id="Camada_1" xmlns="http://www.w3.org/2000/svg" xmlns:xlink="http://www.w3.org/1999/xlink" x="0px" y="0px"
	 viewBox="0 0 304 741" style="enable-background:new 0 0 304 741;" xml:space="preserve">
<style type="text/css">
	.st0{fill:#D2DFE7;}
	.st1{fill:#000;}
</style>
<g>
	<path class="st0" d="M229.9,156c0,3.7,0,7.5,0,11.2c-1.9,1.7-4.3,1.5-6.6,1.5c-48.2,0-96.3,0-144.5,0c-2.3,0-4.7,0.2-6.6-1.5
		c0-3.7,0-7.4,0-11.2c1.9-1.7,4.3-1.5,6.6-1.5c48.2,0,96.3,0,144.5,0C225.5,154.4,227.9,154.2,229.9,156z"/>
	<path class="st1" d="M72.1,167.1c52.6,0,105.2,0,157.7,0c0,0.8,0,1.7,0.1,2.5c0.7,7.4,0.7,7.4-7,7.4c-47.1,0-94.3,0-141.4,0
		C71.9,177.1,71.9,177.1,72.1,167.1z"/>
	<path class="st1" d="M229.9,156c-52.6,0-105.2,0-157.7,0c-0.2-9.9-0.2-9.9,9.6-9.9c46.9,0,93.8,0,140.7,0c4.1,0,7.7-0.3,6.7,5.7
		C228.9,153,230.3,154.4,229.9,156z"/>
	<path class="st1" d="M173,564.7c-0.3-3.1,0.6-6.3-0.7-9.4c6.4-1.8,13-1.2,19.6-1.5c14.5-0.7,29.1-1.8,43.6-2c8.5-0.2,8.5-0.5,8.4,8
		c0,0.7,0,1.3-0.1,2c-1.7,1.7-3.9,1.6-6.1,1.7c-19.9,0.2-39.8,1.7-59.7,2.7C176.2,566.2,174.4,566.3,173,564.7z"/>
	<path class="st1" d="M65.1,559.7c0.3-2.4,0.7-4.8,1-7.2c0.3-2.5,2.3-1.7,3.4-1.5c9.3,1.6,18.7,0.7,28,1.6
		c8.5,0.8,17.2,1.1,25.7,1.2c4.3,0,8.5,1.3,12.8,1.1c1.1,0,2.1,0.3,1.9,1.6c-0.3,2.5,1,5.2-0.9,7.6c-3.9,2.3-8.1,1.4-12.2,1.1
		c-14.9-1.1-29.9-2-44.8-2.8C75,562.2,69.7,562.7,65.1,559.7z"/>
	<path class="st1" d="M135.9,573c0.2,8.9,0.2,8.9-8.5,8.9c-14.5,0.1-28.9-2.1-43.4-2.3c-4.5,0-9.2-1-13.7-0.6
		c-5.1,0.4-7.2-1.3-6.3-6.4c0.3-1.6-0.7-3.3,0.9-4.6c4-1.1,7.9,0.3,11.8,0.5c14.7,0.6,29.5,1.4,44.1,2.7c3,0.3,6,0.2,9,0.3
		C132,571.5,134.2,571.3,135.9,573z"/>
	<path class="st0" d="M135.9,573c-15.7,0.3-31.3-1.5-46.9-2.4c-8-0.5-16.4,1-24.1-2.6c0-2.8,0.1-5.5,0.1-8.3c24,1.5,48,2.9,72,4.4
		C136.8,567.1,137.7,570.2,135.9,573z"/>
	<path class="st0" d="M173,564.7c9-1.5,18.2,0.1,27.2-1.7c0.8-0.2,1.7-0.1,2.5-0.1c13.7-0.4,27.5-0.7,41.2-1.1
		c1.1,3,1.2,6.1,1.1,9.3c-1.2,1-2.7,1.3-4.2,1.3c-15.6,0.2-31.1,1.6-46.6,2c-4.1,0.1-8.3,0-12.4,0.7c-2.7,0.5-5.3,0.4-7.7-1.2
		C171.9,571.1,173.4,567.8,173,564.7z"/>
	<path class="st1" d="M235.8,127.2c-1.7-3.5-0.9-7.6-2.7-11.2c-0.9-1.8,1.1-1.9,2.4-1.9c12.9-0.4,25.7-3.1,38.6-3c0.5,0,1,0,1.5-0.1
		c9.9-1.7,9.9-1.7,12.9,7.1c1.8,2.7,0,3.9-2.2,4.6c-2.8,1-5.8,1.4-8.8,1.5c-12.2,0.6-24.3,2.5-36.5,3.4
		C239.4,127.8,237.5,128.3,235.8,127.2z"/>
	<path class="st1" d="M174.1,574c16.2-0.8,32.4-1.6,48.5-2.3c7.4-0.3,14.9-0.6,22.3-0.6c0,0.3,0,0.7,0,1c0,6.8,0,6.5-6.8,6.9
		c-18.6,0.9-37.1,1.9-55.7,3c-4.7,0.3-8.7,0.3-7.6-6.2C174.9,575.2,174.3,574.6,174.1,574z"/>
	<path class="st1" d="M16.1,121c0-1.2-0.4-2.4,0-3.5c1.1-3,1.5-6.1,6.6-5.7c12.9,1.1,25.7,2.2,38.5,4.2c2.6,0.4,6.4-1.7,7.5,1.3
		c0.7,2.1-1.4,5.1-2.3,7.7c-0.1,0.3-0.3,0.6-0.4,0.9c-2.4,2.1-5.3,1.7-8,1.3c-12-1.5-24-2.6-36-3.9C19.7,123.2,17.6,123,16.1,121z"
		/>
	<path class="st1" d="M65,136.3c0.7,2.9-1.1,5.4-1.1,8.2c0,2.4-2.2,1.6-3.4,1.5c-6.9-0.5-13.7-1.2-20.6-2c-8-0.9-15.9-2-23.9-2.9
		c-2.2-0.2-3.4-0.1-2.2-3c0.8-2,0.2-4.6,0.3-6.9c1.3-1.3,3-1.4,4.7-1.1c13.9,1.7,27.8,2.8,41.7,4.5C62.2,134.7,63.8,134.9,65,136.3z
		"/>
	<path class="st0" d="M65,136.3c-15.8-1.5-31.7-2.8-47.4-5.1c-1.1-0.2-2.3,0-3.5,0c0.2-3.5,0.5-6.9,2-10.1c16.6,1.9,33.1,4.4,49.8,5
		C65.7,129.4,65.3,132.8,65,136.3z"/>
	<path class="st0" d="M235.8,127.2c8.5-1.9,17.2-2.1,25.8-3.1c7.7-0.9,15.4-1.2,23-2.2c1.5-0.2,5.2,0.2,4-3.8
		c2.1,4.1,1.8,8.7,2.3,13.1c-3.4,2.3-7.4,1.4-11.1,1.8c-12.5,1.4-25,2.5-37.5,3.8c-1.5,0.2-3,0.2-4.3-0.7
		C235.9,133.5,237.6,129.9,235.8,127.2z"/>
	<path class="st1" d="M238,136.1c12.8-2,25.7-3.1,38.7-4.1c4.7-0.4,9.4-1.3,14.2-0.7c-0.5,3,1.2,5.6,1.4,8.6
		c-15.3,1.4-30.6,2.8-46,4.2c-4.7,0.4-8.4,0-7.5-6.2C238.8,137.3,238.3,136.7,238,136.1z"/>
	<path class="st1" d="M96,55.1c-7.7,4.6-6.7,6.3-14.4-1.1c-5.1-4.8-10-9.8-16.2-14.6c4.2-0.3,5.6-3.9,8.7-4.5c1-0.6,2-0.5,2.8,0.2
		C83.5,41.5,90.7,47.4,96,55.1z"/>
	<path class="st0" d="M96,55.1C90.1,49.4,84.2,43.7,78.3,38c-1.3-1.2-2.3-2.9-4.3-3c1.6-3.7,5.5-2.3,8.1-3.8
		c7.9,6,14.8,13.1,21.1,20.8C100.8,52.9,98.7,54.8,96,55.1z"/>
	<path class="st1" d="M221.1,34.2c1.3,0,2.9-0.5,3.9,0.1c2.2,1.2,5.1,2,2.1,5.8c-4.5,5.7-8.4,11.9-12.6,17.9c-3,4.4-4.8-1.1-7.3-0.8
		c-0.9-0.5-1.1-1.4-0.7-2.1C210.7,47.5,214.9,40.2,221.1,34.2z"/>
	<path class="st0" d="M221.1,34.2c-4.1,6.2-8.1,12.3-12.2,18.5c-0.9,1.4-1.8,2.7-1.6,4.4c-2.5-1.3-5-2.7-7.6-4
		c-0.2-1.2,0.1-2.3,0.8-3.3c4.8-6.4,7.9-14.1,14.2-19.5C217.6,30.3,219.6,31.8,221.1,34.2z"/>
	<path class="st1" d="M214.7,30.2c-5,7.6-10,15.2-15,22.8c-6.6-3.4-6.4-3.2-2.9-9.7c2.2-4.2,5.8-7.3,8-11.5
		C207.2,27.2,211,28.6,214.7,30.2z"/>
	<path class="st1" d="M103.2,52c-7.7-6.3-14.5-13.5-21.1-20.8c4.3-2.9,7.6-1.8,10.8,2.2c3.8,4.5,8.2,8.6,13,12.1
		c3.4,2.5,3.3,4.4-0.9,5.7C104.4,51.3,103.8,51.7,103.2,52z"/>
</g>
</svg>
