<?xml version="1.0" encoding="utf-8"?>
<!-- Generator: Adobe Illustrator 26.0.0, SVG Export Plug-In . SVG Version: 6.00 Build 0)  -->
<svg version="1.1" id="Camada_1" xmlns="http://www.w3.org/2000/svg" xmlns:xlink="http://www.w3.org/1999/xlink" x="0px" y="0px"
	 viewBox="0 0 304 741" style="enable-background:new 0 0 304 741;" xml:space="preserve">
<style type="text/css">
	.st0{fill:#D3DFE7;}
	.st1{fill:#000;}
	</style>
<g>
	<path class="st0" d="M72.2,167.1c-0.1-3.3-0.2-6.7-0.3-10c0.4-2.4,2.4-2.5,4.1-2.9c1.3-0.3,2.7-0.2,4-0.2c48.9,0,97.9,0,146.8,0
		c2.8,0,5.7-0.4,7.9,2c0,3.7,0,7.3,0,11c-1.7,2.1-4.1,2-6.4,2c-49.9,0-99.8,0-149.7,0C76.3,169.1,74,169,72.2,167.1z"/>
	<path class="st1" d="M234.8,156.1c-52.4,0-104.9,0-157.3,0c-1.9,0-4-0.9-5.6,1c-1.8-2.9-0.4-6.1-0.8-9.1c-0.2-1.6,0.9-1.9,2.2-1.9
		c1.3,0,2.7,0,4,0c50.8,0,101.5,0,152.3,0c6,0,6,0,5.4,6C234.8,153.4,234.8,154.7,234.8,156.1z"/>
	<path class="st1" d="M72.2,167.1c54.2,0,108.4,0,162.6,0c2,2.5,0.9,5.4,1.1,8.1c0.1,1.6-0.9,1.9-2.2,1.9c-1.2,0-2.3,0-3.5,0
		c-50.3,0-100.7,0-151,0c-7.1,0-7.2,0-7.1-7C72.1,169,72.2,168,72.2,167.1z"/>
	<path class="st1" d="M168.2,565c-0.1-0.8-0.1-1.7-0.2-2.5c-0.1-8.1-0.1-8.6,7.7-8.4c11.3,0.3,22.5-0.6,33.6-1.4
		c8.8-0.6,17.7,0.3,26.5-1.6c5.7-1.2,6.1-0.5,6,5.4c0,1.8-0.1,3.6-0.2,5.5c-2,2.4-4.8,2-7.4,2c-20.3,0-40.4,1.8-60.7,2.6
		C171.7,566.6,169.7,566.6,168.2,565z"/>
	<path class="st1" d="M61.2,560c-0.5-9.7,1-10.9,10.8-8.5c1.3,0.3,2.6,0.6,3.9,0.5c11.1-0.6,22.1,0.7,33.1,1.3
		c7.8,0.4,15.7-0.2,23.5,1.6c1.8,0.4,2.7,0.7,2.6,2.6c-0.1,2.1-0.1,4.3-0.2,6.5c-4.1,3.3-8.9,2-13.4,1.7c-15-1-30-2.1-45-2.7
		C71.3,562.7,65.9,563.1,61.2,560z"/>
	<path class="st0" d="M168.2,565c14.8-1.1,29.6-1.3,44.4-2.3c9.8-0.6,19.5-0.2,29.2-0.7c2.1,2.8,0.9,6,1,9c-1.9,2.1-4.5,1.9-6.9,2
		c-19.9,0.5-39.8,1.5-59.7,2.8c-2.6,0.2-4.9-0.4-7.2-1.7C167,571.2,168.3,568,168.2,565z"/>
	<path class="st1" d="M237.1,170.1c-2-12.5-3.9-11.9,10.4-13.1c10.4-0.8,20.7-2.5,31.1-3.8c3.2-0.4,6.5-0.1,9.7-1.1
		c1.3-0.4,2.3,0.1,2.7,1.9c0.7,3.3,2.3,6.5,1.7,10c-1.3,1.6-3.2,1.4-4.9,1.7c-13,2.7-26.2,3.6-39.3,5.3
		C244.7,171.6,240.7,173.2,237.1,170.1z"/>
	<path class="st0" d="M61.2,560c18.9,1,37.9,1.7,56.8,3.2c5.6,0.5,11.2,0.5,16.8,0.8c-0.3,3-0.7,6-1,9c-5,3.7-10.6,2-15.9,1.7
		c-15.4-1-30.8-1.9-46.2-2.8c-3.9-0.2-8.5,0.9-10.9-3.9C61,565.3,61.1,562.6,61.2,560z"/>
	<path class="st1" d="M60.9,568c3.1,1.4,6.4,2.2,9.8,2c9.1-0.5,18.1,0.8,27.2,1.3c12,0.6,23.9,1.9,36,1.8c-0.3,2.4-0.7,4.8-0.8,7.2
		c-0.1,2.1-1.6,1.7-2.9,1.7c-11.6,0.2-23.1-1.1-34.6-1.7c-9.2-0.5-18.5-1.4-27.8-1.3c-7.9,0.1-8,0-7.7-7.8
		C60.1,570,59.6,568.7,60.9,568z"/>
	<path class="st1" d="M169,574.1c24.6-1.3,49.1-3.2,73.8-3.2c0,0.3,0.1,0.7,0.1,1c0.2,7,0.2,6.8-6.6,7.1c-15,0.6-30,1.5-45.1,2.2
		c-5.6,0.3-11.2,0.4-16.8,0.8c-3.2,0.2-5.2-0.4-4.5-4.2C170.2,576.5,169.9,575.2,169,574.1z"/>
	<path class="st1" d="M13.1,162.9c0.1-3.1-1-7,0.5-9.3c1.9-3,5.4,0.4,8.3,0.5c14.5,0.5,28.7,3.8,43.1,5.1c3,0.3,4.3,3.9,2.4,6.8
		c-0.7,1.1-1.7,2-2.6,3c-1.7,1.8-3.8,1.8-6,1.5c-13.5-1.7-27-3.5-40.5-5.4C16.4,164.9,14.4,164.8,13.1,162.9z"/>
	<path class="st0" d="M13.1,162.9c12.8,1.3,25.5,2.9,38.1,5c4.5,0.8,9.1,0.8,13.7,1.1c0.6,4.1-1.4,7.2-3.8,10.2
		c-1.6,1.3-3.3,1.3-5.2,1c-13.7-1.6-27.3-3.6-40.9-5.4c-1.5-0.2-3-0.5-3.8-2C11.1,169.4,10.6,165.9,13.1,162.9z"/>
	<path class="st1" d="M11.1,172.9c16.8,1.3,33.3,4.1,50,6.3c-3.9,8.2-7.8,9.6-19.6,7.6c-8.9-1.5-17.9-2.7-26.8-3.8
		C8.3,182.3,7.9,181.4,11.1,172.9z"/>
	<path class="st1" d="M293.9,172.9c0.3,0.4,0.8,0.7,0.9,1.1c1.9,8.7,1.8,8.4-7.3,9.2c-10.5,0.9-21,2.6-31.4,3.8
		c-2.5,0.3-5,0-7.4,0.1c-1.8,0.1-2.5-0.4-2.9-2.3c-0.4-2-1.2-4-2.8-5.5c2.1-2.7,5.3-2.5,8.2-2.9c12.8-1.7,25.6-3.5,38.5-4.5
		C291.2,171.5,292.7,171.8,293.9,172.9z"/>
	<path class="st0" d="M290,173.1c-3.1,2.3-7,1.3-10.3,1.6c-12.3,1.2-24.5,3.4-36.8,4.5c-2.5-2.7-5-5.4-5.8-9.2
		c10.9-0.2,21.6-2.4,32.5-3.6c6.1-0.7,12.2-1.5,18.3-2.2C290.9,166.6,290.1,170,290,173.1z"/>
	<path class="st1" d="M98,56.2c-8.3,5-8.5,5.2-15-1.8C78.3,49.3,72,45.9,67,40.5c3.1-0.7,3.9-4.4,7.1-4.6c2.3-0.6,4.5-0.8,6.5,1
		c5.5,5.3,10.9,10.7,16.2,16.2C97.5,54,98.1,55,98,56.2z"/>
	<path class="st0" d="M98,56.2C92,50.3,86,44.5,80.1,38.5c-1.8-1.8-3.6-2.7-6-2.6c3.4-1.1,6.1-4,10-3.7c6.4,2.8,10.1,8.7,15,13.3
		c2.3,2.1,5.5,3.7,6,7.4C102.8,54.2,100.6,55.7,98,56.2z"/>
	<path class="st1" d="M223,34.9c7.2,2.4,7.1,2.3,2.4,8.3c-3,3.8-5.7,7.9-8.4,11.9c-4.1,6.1-4,6.2-10.2,1.9c-0.7-1.8,0.2-3.2,1-4.6
		c3.3-5.3,6.9-10.5,10.6-15.6C219.5,35.4,220.8,34.1,223,34.9z"/>
	<path class="st0" d="M223,34.9c-4.2,0.7-4.3,5.1-6.5,7.5c-3.8,4.4-6.5,9.7-9.7,14.6c-2.6-0.4-4.6-2.1-6.8-3.2
		c-0.3-0.8-0.5-1.7,0-2.4c3.8-6.7,7.8-13.1,12.8-18.9c0.3-0.4,0.9-0.4,1.4-0.5C217.5,31.6,220.1,33.8,223,34.9z"/>
	<path class="st1" d="M214.1,32.1c-4.7,7.3-9.4,14.6-14.2,21.8c-6.9-3.1-6.6-3-3.2-9.6c2.2-4.2,5.7-7.4,8-11.5
		C207.3,28.4,210.7,28.8,214.1,32.1z"/>
	<path class="st1" d="M105,52.9c-7.6-6.3-14.2-13.5-21-20.7c5.4-2.5,9-0.2,12.6,3.8c4.4,4.8,9.5,9,14.3,13.5
		C109.3,51.4,107.1,52,105,52.9z"/>
	<path class="st0" d="M290,173.1c-2.8-2.5-0.8-6.1-2.1-8.9c1.6-0.1,3.2-0.1,4.8-0.2c0.5,2.9,1.7,5.8,1.2,8.8
		C292.6,173,291.3,173,290,173.1z"/>
</g>
</svg>
