<?xml version="1.0" encoding="utf-8"?>
<!-- Generator: Adobe Illustrator 26.0.0, SVG Export Plug-In . SVG Version: 6.00 Build 0)  -->
<svg version="1.1" id="Camada_1" xmlns="http://www.w3.org/2000/svg" xmlns:xlink="http://www.w3.org/1999/xlink" x="0px" y="0px"
	 viewBox="0 0 304 740" style="enable-background:new 0 0 304 740;" xml:space="preserve">
<g>
	<path d="M134.6,0.1c3.7,0,7.3,0,11,0c5.9,1.1,11.9,0.3,17.8,0.5c6.7,0.1,13.2,1,19.6,3.1c4,1.3,7.1,3.5,8.7,7.5
		c2.6,6.5,7.5,10.4,13.6,13.8c12.3,7,25.8,10.4,38.8,15.4c17.7,6.7,30.6,17.9,36.8,35.9c6.1,17.6,12.1,35.3,15.1,53.7
		c3,18.4,3.3,37.1,3.5,55.7c0,3.8-1.6,6.2-4.9,7.9c-10.3,5-20.8,7.8-32.2,4.4c-6.1-1.8-9.9-5.2-11-12c-1.9-12.5-5.3-24.7-7.6-37.1
		c-2.1-10.9-3.8-21.9-5.2-28.7c0.8,4.6,0.7,13.4,0,22.1c-1.1,14.7-0.7,29.6-2.6,44.3c-2.2,17.1-5.9,33.7-12,49.8
		c-2,5.3-2.2,10.7,2,15.5c2.1,2.4,3.3,5.4,4.3,8.4c1.4,4.3,2.8,8.5,4.7,12.6c2.4,5,3.8,10.1,4.1,15.8c0.4,9.3,3.6,18.2,4.2,27.6
		c0.4,5.7,0.6,11.3,0.5,16.9c-0.1,8,1,15.9,2.5,23.8c0.7,3.5,0.9,6.9,0.2,10.4c-1.1,6.1-1,12.3-0.4,18.4c0.6,5.9,1,11.6-0.3,17.4
		c-1.8,8.5-0.3,16.9,0.2,25.3c1.5,25.2,2.3,50.3-1.6,75.6c-3.2,20.7-2.1,41.8-0.9,62.7c1.8,31.3,6.8,62.5,5.3,94c-0.1,3,0,6-0.6,8.9
		c-0.6,3-0.2,5.9,0.9,8.8c4.1,10.4,2.7,21.3,2.2,32.1c-0.2,4.6-3.4,7.9-7.2,10.2c-2.6,1.5-4.1,3.6-4.5,6.7
		c-0.7,5.3-3.9,8.7-9.1,10.1c-8.9,2.3-17.8,1.8-26.6-0.3c-4.8-1.1-7-4.3-8.1-9.4c-1.7-8.1-4.9-15.8-7.8-23.6
		c-6.6-17.8-10.6-36.1-12.8-54.7c-3.7-31.4-6.1-62.9-9.3-94.3c-1.7-16.5-1.9-33.2-3-49.7c-1.2-17.7-1.1-35.6-3.9-53.2
		c-0.8-5.3-2.7-10.3-4-15.4c-1.2-4.6-2.6-9.1-1.7-14.2c-1.1,10.7-4.8,20.7-4.8,31.3c0,5-1.8,9.8-3.8,14.4
		c-2.6,6.2-3.4,12.8-3.7,19.5c-0.8,17.1-2.2,34.1-3.5,51.2c-1.3,17.1-2.5,34.1-4.4,51.2c-3.2,28.2-4.3,56.7-9.3,84.7
		c-2.5,13.9-5.3,27.8-9.3,41.3c-1.7,5.6-4.7,10.8-4.9,17c-0.1,3.2-3.4,5-6.4,5.4c-8.6,1.1-17.2,1.2-25.8,0.3
		c-7.1-0.8-10-3.7-10.8-10.8c-0.4-3.3-1.8-4.5-4.9-5c-6.2-1.2-10.7-6.1-10.9-12.5c-0.3-10.1-0.9-20.3,2.7-30.1
		c0.9-2.4,1.1-4.8,1.1-7.4c0.2-21,2.1-41.8,3.8-62.7c1.5-18.9,0.8-37.9,1.2-56.8c0.6-23.5-1.4-46.8-3.8-70.2
		c-0.8-8.2-0.1-16.6,0.1-24.9c0.5-18.7,2.9-37.4,0.5-56.3c-1.2-9-0.2-18.2,0.9-27.3c0.3-2.1,1-4.3,0.5-6.4
		c-2.8-10.7-0.4-21.3,2.1-31.5c3.7-14.9,6.7-29.7,6-45.1c-0.1-1.8,0.1-3.7,0.9-5.4c5.5-12.5,6.9-26.3,13.3-38.6
		c3-5.8,2.5-12.9-0.7-18.9c-4.1-7.7-4.7-15.9-4.9-24.2c-0.2-5.9-0.6-11.6-2.2-17.2c-0.8-2.9-1.7-5.9-1.1-8.9
		c2.6-13.2-0.7-26.2-0.8-39.2c0-2.4-1.3-4.5-1.4-6.8c0.7-2.8-0.2-5.6-0.3-8.4c0.1-1,0.3-2,0.1-3.2c0,0.9,0,1.6-0.2,2.2
		c-0.3,3.8-1,7.6-1.3,11.5c-1,12.4-3.7,24.6-6.4,36.7c-0.8,3.5-0.5,6.9-0.7,10.4c-0.4,6.6-2.8,11.7-9.5,14.3
		c-12.8,4.9-25.1,2.9-37-2.8c-2.6-1.2-3.7-3.6-3.9-6.5c-2.1-21.5-2.4-43,0.4-64.6c1.3-10.1,3-20.2,6.2-29.7
		c4-11.6,6.6-24.3,15.9-33.4c8.1-8,17.3-14.4,28.5-17.6c1-0.3,2-0.4,2.8-0.9c12.2-8.8,27.2-11.1,40.3-17.8c5.8-3,10.3-7.1,12.8-12.7
		c3.4-7.5,8.8-10.3,16.6-9.9C133.7,0.6,134.2,0.4,134.6,0.1z"/>
</g>
</svg>
