<?xml version="1.0" encoding="utf-8"?>
<!-- Generator: Adobe Illustrator 26.0.0, SVG Export Plug-In . SVG Version: 6.00 Build 0)  -->
<svg version="1.1" id="Camada_1" xmlns="http://www.w3.org/2000/svg" xmlns:xlink="http://www.w3.org/1999/xlink" x="0px" y="0px"
	 viewBox="0 0 304 740" style="enable-background:new 0 0 304 740;" xml:space="preserve">
<g>
	<path d="M83,739.9c-4.3,0-8.7,0-13,0c-5.6-0.9-11.1-1.7-14.9-6.7c-1.8-2.3-3.1-4.7-3.3-7.7c-0.5-8.2-0.4-16.4,4-23.8
		c1-1.6,1.5-3.3,0.5-5.2c-2.7-5.1-2.2-10.4,0.9-14.8c7.1-10,6.7-20.5,4.8-31.9c-3-18.1-2.5-36.4-0.7-54.7
		c1.3-14.4,2.2-28.9,3.4-43.3c0.7-9.3,1.8-18.6,1.9-27.9c0.4-20.1-2.7-39.7-6-59.5c-2.4-14.4-1-29.2-0.6-43.9
		c0.4-10.9,2.9-21.7,0.8-32.8c-0.9-4.5-0.3-9.3-0.2-14c0.2-5.7,0.4-11.3-0.8-16.9c-1.1-5.2,1.3-10.2,1.8-15.3
		c1.4-13.2,1.3-26.6,2.9-39.8c0.7-5.9,1.7-11.6-0.1-17.7c-1.5-4.9,1.4-10.2,4.3-14.5c2.5-3.8,4.2-7.9,5.5-12.2
		c1.7-5.4,3.3-10.9,7-15.4c1.2-1.5,1.5-3.3,1.4-5.2c-0.1-3.5-0.3-7.1-1.8-10.3c-7.2-15.3-7.3-32-9.3-48.2c-2.5-20-0.1-40.1-1.2-60.2
		c-3.9,8.2-3.6,17.2-4.8,25.9c-1.6,12.2-3.3,24.4-4.3,36.7c-0.6,7.9-1.7,8.7-9.5,8.7c-7,0-14,0-21,0.5c-3,0.2-6-0.1-8.9-0.7
		c-8-1.5-10.3-4.5-10.1-12.7c0.1-5.7-0.7-11.3-0.6-16.9c0.3-18.4,1.4-36.6,7.3-54.2c3-9.1,5.6-18.4,9.5-27.3
		c2.4-5.5,3.7-11.7,6.3-17.3c3.7-7.8,9.6-12.9,17.4-16.4c17-7.6,33.8-15.6,50.4-24c5.3-2.7,8.2-7.3,10.3-12.4
		c2-5.2,5.1-7.9,10.9-7.1c2.3,0.3,4.6-0.7,6.9-0.4c2.3,0,4.7,0,7,0c6.3-0.3,12.6,0.7,18.8-0.5c6.7,0,13.3,0,20,0
		c3.2,0.6,6,1.8,7.5,5c5.8,13,17.2,18.9,29.6,23.4c12.5,4.6,24.7,10,36.8,15.4c14.3,6.4,22.4,19.2,27.7,33.4
		c5.3,14.4,9.8,29.1,13.1,44c4.5,19.8,6.4,40.1,8.1,60.3c0.4,4.4-3,8.6-8,9.4c-11,1.7-22.1,3.5-33.2,3.4
		c-7.6-0.1-11.2-3.4-12.4-10.9c-2.9-19.1-6.2-38.1-11-56.8c-1.9-7.2-3.7-14.5-3.3-21.3c0.4,12.4,0.7,25.6-0.5,38.9
		c-0.8,8.2,0.7,16.6,1.3,24.9c0.6,7.7-0.2,15-2.9,22c-1.9,5-2.5,9.9-1.1,15.1c1.5,5.6,0.2,10.9-2.4,16c-3.7,7.2-4.6,13.9,0.5,21.1
		c2.9,4.2,3.3,9.7,4.7,14.7c2.7,9.5,5,19,7.5,28.5c1.8,6.9,1,13.9,1.8,20.9c0.8,7,3,13.6,4.5,20.5c2,9.5,2.6,19,2.3,28.7
		c-0.3,8.3-0.1,16.6,0.6,24.9c0.1,0.8,0.2,1.7,0.2,2.5c-1.4,21.5,2.2,42.8,1.2,64.3c-0.5,10.5-1.5,20.9-3,31.3
		c-1.9,13.7-2.9,27.4-1.5,41.3c0.9,8.6,1,17.3,1.1,25.9c0.4,19.1,1.7,38.2,2.5,57.3c0.6,14.2,0.3,28.3,0.8,42.4
		c0.2,5.2-0.8,10.3-1.1,15.4c-0.2,3.6,0.6,6.9,2.6,9.9c2.4,3.6,4.5,7.4,5.6,11.7c0.8,3.2,1.1,6.4-1.7,8.8c-1.9,1.5-0.7,2.6,0.2,3.7
		c5,6.2,6.2,13.6,6.3,21.1c0.2,10.6-5.6,17.3-16.1,18.8c-13.6,1.9-25.2-2.6-35.3-11.5c-3.6-3.2-5.5-7.1-5.3-11.9
		c0.2-3.9-1-5.7-5.4-5.5c-6.9,0.3-8-0.9-9.4-7.6c-1.5-6.7-1.7-13.5-2.6-20.3c-1.8-14.1-6.2-27.6-7.1-41.8
		c-1.2-19.6-3.7-39.1-5.7-58.6c-1.7-16.9-3-33.8-4.4-50.7c-1-11.8-1.7-23.6-2.5-35.3c-0.7-11-0.8-22-2.1-32.9
		c-0.5-4.4-2.8-8.2-4.6-12.1c-2.1-4.5-3.2-9-3.3-14c-0.1-7.9-2.3-15.4-4.3-23c-0.2,1.8-0.4,3.4-0.9,4.9c-5.5,14.4-5.6,29.5-6,44.7
		c-0.4,16.6-1.7,33.2-2.6,49.8c-0.7,12.5-1.1,24.9-2.2,37.4c-1.2,14.3-3.3,28.4-4.5,42.7c-1.4,17.7-2.1,35.6-5.7,53.1
		c-2.6,12.6-4,25.3-6.5,37.9c-2.2,11.1-5.3,22.2-14.8,29.8c-1.9,1.5-2.2,3.6-2.5,5.8c-1.4,12.2-10.2,21-22.7,22.6
		C83.6,739.5,83.3,739.7,83,739.9z"/>
</g>
</svg>
